<?xml version="1.0" encoding="utf-8"?>
<!-- Generator: Adobe Illustrator 19.0.0, SVG Export Plug-In . SVG Version: 6.00 Build 0)  -->
<svg version="1.1" id="Capa_1" xmlns="http://www.w3.org/2000/svg" xmlns:xlink="http://www.w3.org/1999/xlink" x="0px" y="0px"
	 viewBox="-430 231.6 98.4 98.4" style="enable-background:new -430 231.6 98.4 98.4;" xml:space="preserve">
<style type="text/css">
	.st0{fill:#FFFFFF;}
</style>
<g>
	<g>
		<path class="st0" d="M-332.2,254.7l-7.2-7.2c-0.8-0.8-2-0.8-2.8,0l-37.3,37.3l-13.3-13.3c-0.8-0.8-2-0.8-2.8,0l-7.2,7.2
			c-0.4,0.4-0.6,0.9-0.6,1.4s0.2,1,0.6,1.4l21.9,21.9c0.4,0.4,0.9,0.6,1.4,0.6c0.5,0,1-0.2,1.4-0.6l45.9-45.9
			c0.4-0.4,0.6-0.9,0.6-1.4C-331.6,255.6-331.8,255.1-332.2,254.7z"/>
		<path class="st0" d="M-356.4,312.6H-420V249h65.1l8.5-8c0-1.1-0.9-2-2-2H-428c-1.1,0-2,0.9-2,2v79.6c0,1.1,0.9,2,2,2h79.6
			c1.1,0,2-0.9,2-2v-37.9l-10,10.5L-356.4,312.6L-356.4,312.6z"/>
	</g>
</g>
</svg>
